<?xml version="1.0" encoding="utf-8"?>
<!-- Generator: Adobe Illustrator 27.3.1, SVG Export Plug-In . SVG Version: 6.00 Build 0)  -->
<svg version="1.1" id="Capa_1" xmlns="http://www.w3.org/2000/svg" xmlns:xlink="http://www.w3.org/1999/xlink" x="0px" y="0px"
	 viewBox="0 0 226.14 202.63" style="enable-background:new 0 0 226.14 202.63;" xml:space="preserve">
<style type="text/css">
	.st0{fill:#FFFFFF;}
</style>
<g>
	<path class="st0" d="M186.66,144.71H51.86V11.17h134.8V144.71z M62.4,0L41.32,22.47v133.4h134.77l21.11-22.33V0H62.4z"/>
	<g>
		<path class="st0" d="M17.92,201.35c-1.52,0.68-3.96,1.28-7,1.28c-6.8,0-10.92-4.32-10.92-11.2c0-5.08,2.04-9.92,5.72-13
			c2.8-2.36,6.24-3.6,10.2-3.6c2.96,0,5.12,0.76,5.84,1.28l-1.08,2.68c-1-0.6-2.92-1.12-5.32-1.12c-2.8,0-5.64,1.08-7.72,3.04
			c-2.52,2.36-4.12,6.16-4.12,10.28c0,4.8,2.2,8.8,8.2,8.8c2.04,0,4.28-0.4,5.76-1.16L17.92,201.35z"/>
		<path class="st0" d="M21.39,202.19l2.36-12.48c0.48-2.52,0.76-5.08,0.96-6.88h2.92c-0.12,1.36-0.28,2.68-0.52,4.2h0.12
			c1.28-2.64,3.32-4.64,5.92-4.64c0.32,0,0.68,0.04,0.96,0.08l-0.64,3.28c-0.24-0.04-0.56-0.08-0.92-0.08
			c-2.84,0-5.4,3.48-6.24,7.96l-1.6,8.56H21.39z"/>
		<path class="st0" d="M47.15,187.43c0-1.56-1.2-2.44-2.96-2.44c-3.16,0-5.52,3.08-6.32,6.12c5.2,0.08,9.28-0.64,9.28-3.64V187.43z
			 M47.87,201.11c-1.44,0.8-3.8,1.52-6.4,1.52c-5.12,0-7.36-3.52-7.36-7.8c0-5.84,4.32-12.44,10.56-12.44c3.68,0,5.68,2.2,5.68,5
			c0,5.08-5.72,6.4-12.88,6.28c-0.16,0.84-0.04,2.64,0.4,3.68c0.76,1.76,2.32,2.6,4.32,2.6c2.28,0,4-0.68,5.2-1.32L47.87,201.11z"/>
		<path class="st0" d="M67.02,185.31c-0.48-0.16-1.16-0.28-2.28-0.28c-5,0-9.12,5.2-9.12,10.6c0,2.16,0.76,4.28,3.28,4.28
			c2.8,0,6.08-3.6,7-8.76L67.02,185.31z M64.9,202.19c0-1.16,0.2-3,0.44-5h-0.08c-2.12,4.04-4.8,5.44-7.52,5.44
			c-3.44,0-5.56-2.72-5.56-6.4c0-6.76,4.96-13.84,13.36-13.84c1.84,0,3.88,0.32,5.2,0.72l-1.96,10.12c-0.64,3.36-0.88,6.8-0.8,8.96
			H64.9z"/>
		<path class="st0" d="M72.94,202.19l2.56-13.72c0.44-2.16,0.72-4.04,0.92-5.64h3l-0.52,3.8h0.08c1.76-2.72,4.36-4.24,7.2-4.24
			c2.28,0,4.88,1.32,4.88,5.36c0,0.88-0.16,2.12-0.36,3.12l-2.16,11.32h-3.28l2.12-11.2c0.12-0.72,0.24-1.64,0.24-2.48
			c0-1.92-0.76-3.36-3.04-3.36c-2.36,0-5.72,2.84-6.6,7.64l-1.76,9.4H72.94z"/>
		<path class="st0" d="M109.25,185.87c-0.64-0.48-1.76-0.84-3.16-0.84c-4.64,0-8.24,4.96-8.24,10.12c0,2.32,0.8,4.76,3.64,4.76
			c2.56,0,5.64-2.92,6.48-7.28L109.25,185.87z M114.85,173.79l-4.28,22.28c-0.36,2-0.68,4.24-0.8,6.12h-3.04l0.52-3.84h-0.08
			c-1.76,2.76-4.2,4.28-7,4.28c-3.72,0-5.76-3.08-5.76-7.04c0-6.88,5.12-13.2,11.96-13.2c1.24,0,2.6,0.28,3.44,0.68l1.72-9.28
			H114.85z"/>
		<path class="st0" d="M123.45,199.99c3.92,0,6.88-5.04,6.88-9.56c0-2.24-1.04-5.4-4.52-5.4c-4.16,0-6.92,5.08-6.92,9.52
			c0,3.16,1.76,5.44,4.52,5.44H123.45z M123.05,202.63c-4.84,0-7.56-3.6-7.56-7.96c0-6.4,4.44-12.28,10.72-12.28
			c5.24,0,7.6,3.96,7.6,8.04c0,6-4.24,12.2-10.72,12.2H123.05z"/>
		<path class="st0" d="M147.96,202.19l-3.32-26.95h3.4l1.96,17.24c0.28,2.8,0.48,4.36,0.48,6.12h0.12c0.68-1.68,1.52-3.68,2.96-6.52
			l8.6-16.84h3.64l-14.16,26.95H147.96z"/>
		<path class="st0" d="M177.52,185.31c-0.48-0.16-1.16-0.28-2.28-0.28c-5,0-9.12,5.2-9.12,10.6c0,2.16,0.76,4.28,3.28,4.28
			c2.8,0,6.08-3.6,7-8.76L177.52,185.31z M175.4,202.19c0-1.16,0.2-3,0.44-5h-0.08c-2.12,4.04-4.8,5.44-7.52,5.44
			c-3.44,0-5.56-2.72-5.56-6.4c0-6.76,4.96-13.84,13.36-13.84c1.84,0,3.88,0.32,5.2,0.72l-1.96,10.12c-0.64,3.36-0.88,6.8-0.8,8.96
			H175.4z"/>
		<polygon class="st0" points="183.43,202.19 188.83,173.79 192.15,173.79 186.75,202.19 		"/>
		<path class="st0" d="M200.75,199.99c3.92,0,6.88-5.04,6.88-9.56c0-2.24-1.04-5.4-4.52-5.4c-4.16,0-6.92,5.08-6.92,9.52
			c0,3.16,1.76,5.44,4.52,5.44H200.75z M200.35,202.63c-4.84,0-7.56-3.6-7.56-7.96c0-6.4,4.44-12.28,10.72-12.28
			c5.24,0,7.6,3.96,7.6,8.04c0,6-4.24,12.2-10.72,12.2H200.35z"/>
		<path class="st0" d="M213.42,202.19l2.36-12.48c0.48-2.52,0.76-5.08,0.96-6.88h2.92c-0.12,1.36-0.28,2.68-0.52,4.2h0.12
			c1.28-2.64,3.32-4.64,5.92-4.64c0.32,0,0.68,0.04,0.96,0.08l-0.64,3.28c-0.24-0.04-0.56-0.08-0.92-0.08
			c-2.84,0-5.4,3.48-6.24,7.96l-1.6,8.56H213.42z"/>
	</g>
	<g>
		<path class="st0" d="M96.41,112.13h-3.09v4.63h2.96c0.31,0,0.94-0.1,1.86-0.31c0.47-0.1,0.83-0.34,1.13-0.72
			c0.31-0.38,0.45-0.83,0.45-1.31c0-0.74-0.23-1.3-0.69-1.7C98.56,112.33,97.69,112.13,96.41,112.13z"/>
		<path class="st0" d="M142.03,112.13h-1.99v5.09h1.72c1.35,0,2.3-0.23,2.85-0.7c0.55-0.48,0.83-1.08,0.83-1.81
			c0-0.72-0.24-1.33-0.71-1.83C144.24,112.38,143.34,112.13,142.03,112.13z"/>
		<path class="st0" d="M72.78,86.93c0.56-0.47,0.82-1.07,0.82-1.8c0-0.72-0.24-1.32-0.71-1.82c-0.48-0.5-1.37-0.75-2.69-0.75h-1.99
			v5.08h1.72C71.29,87.64,72.24,87.4,72.78,86.93z"/>
		<polygon class="st0" points="121.68,83.83 119.19,92.01 124.17,92.01 		"/>
		<path class="st0" d="M57.08,15.76v124.36h124.37V15.76H57.08z M168.84,77.9h7.05v22.75h-7.05V77.9z M138.97,77.9h6.56l8.57,12.6
			V77.9h6.62v22.75h-6.62l-8.53-12.52v12.52h-6.6V77.9z M117.92,77.94h7.67l8.55,22.75h-7.36l-1.14-3.75h-7.97l-1.12,3.75h-7.19
			L117.92,77.94z M87.29,77.94h7.03v17.15h10.98v5.6H87.29V77.94z M61.15,77.94h11.68c2.54,0,4.45,0.61,5.71,1.82
			c1.27,1.22,1.9,2.93,1.9,5.17c0,2.3-0.69,4.1-2.07,5.38c-1.38,1.3-3.49,1.94-6.32,1.94h-3.84v8.45h-7.06V77.94z M83.58,127.02
			c-2.08,1.42-3.91,2.38-5.5,2.9c-1.61,0.51-3.5,0.77-5.69,0.77c-2.7,0-4.9-0.46-6.6-1.38c-1.7-0.92-3.02-2.3-3.95-4.11
			c-0.94-1.82-1.41-3.92-1.41-6.27c0-2.49,0.52-4.65,1.54-6.48c1.02-1.84,2.53-3.24,4.5-4.19c1.54-0.73,3.61-1.1,6.23-1.1
			c2.51,0,4.39,0.23,5.63,0.68c1.24,0.45,2.28,1.16,3.1,2.11c0.83,0.96,1.44,2.18,1.85,3.65l-6.77,1.21
			c-0.28-0.86-0.76-1.52-1.42-1.97c-0.67-0.45-1.52-0.68-2.56-0.68c-1.54,0-2.77,0.54-3.69,1.61c-0.91,1.06-1.37,2.76-1.37,5.07
			c0,2.47,0.47,4.23,1.38,5.28c0.93,1.06,2.22,1.58,3.87,1.58c0.78,0,1.54-0.12,2.24-0.35c0.72-0.22,1.53-0.6,2.45-1.15v-2.15h-4.69
			v-4.73h10.85V127.02z M100.7,130.29l-3.76-6.95c-0.48-0.91-0.89-1.49-1.27-1.75c-0.5-0.36-1.08-0.54-1.72-0.54h-0.62v9.24h-7.06
			v-22.76h11.72c2.17,0,3.84,0.19,4.98,0.57c1.15,0.37,2.07,1.07,2.78,2.07c0.71,1.01,1.06,2.24,1.06,3.69
			c0,1.26-0.27,2.34-0.8,3.26s-1.28,1.66-2.23,2.23c-0.59,0.36-1.42,0.66-2.46,0.89c0.84,0.29,1.44,0.57,1.82,0.85
			c0.26,0.18,0.63,0.57,1.13,1.19c0.49,0.61,0.82,1.08,0.98,1.42l3.42,6.59H100.7z M130.56,121.1c0,1.33-0.2,2.61-0.62,3.8
			c-0.42,1.2-1.08,2.24-1.97,3.13c-0.9,0.89-1.84,1.53-2.82,1.88c-1.35,0.51-3,0.77-4.92,0.77c-1.1,0-2.31-0.08-3.62-0.24
			c-1.31-0.15-2.4-0.46-3.28-0.92c-0.88-0.46-1.68-1.11-2.42-1.97c-0.73-0.84-1.22-1.72-1.49-2.62c-0.43-1.44-0.65-2.73-0.65-3.84
			v-13.56h7.01v13.88c0,1.24,0.35,2.21,1.03,2.91c0.69,0.7,1.64,1.04,2.87,1.04c1.21,0,2.17-0.34,2.84-1.02
			c0.69-0.69,1.04-1.67,1.04-2.93v-13.88h7.01V121.1z M150.2,119.88c-1.38,1.29-3.49,1.94-6.32,1.94h-3.85v8.44h-7.06v-22.75h11.68
			c2.54,0,4.44,0.61,5.72,1.82c1.27,1.21,1.9,2.94,1.9,5.17C152.27,116.79,151.58,118.59,150.2,119.88z M175.67,125.26
			c-0.88,1.69-2.18,3.02-3.87,3.97c-1.69,0.94-3.8,1.42-6.32,1.42c-2.57,0-4.69-0.42-6.37-1.24c-1.69-0.81-3.05-2.11-4.09-3.88
			c-1.04-1.77-1.56-3.98-1.56-6.64c0-3.72,1.03-6.6,3.1-8.67c2.07-2.07,4.95-3.11,8.65-3.11c3.77,0,6.69,1.02,8.74,3.05
			c2.05,2.03,3.07,4.89,3.07,8.55C177.02,121.37,176.58,123.56,175.67,125.26z"/>
		<path class="st0" d="M165.19,112.45c-1.42,0-2.56,0.5-3.41,1.51c-0.86,1-1.28,2.66-1.28,4.97c0,2.29,0.42,3.94,1.28,4.95
			c0.84,1,2.01,1.5,3.47,1.5c1.51,0,2.68-0.5,3.51-1.48c0.82-0.97,1.24-2.74,1.24-5.28c0-2.14-0.42-3.7-1.29-4.69
			C167.84,112.95,166.67,112.45,165.19,112.45z"/>
	</g>
</g>
</svg>
