<?xml version="1.0" encoding="utf-8"?>
<!-- Generator: Adobe Illustrator 27.9.0, SVG Export Plug-In . SVG Version: 6.00 Build 0)  -->
<svg version="1.1" id="a" xmlns="http://www.w3.org/2000/svg" xmlns:xlink="http://www.w3.org/1999/xlink" x="0px" y="0px"
	 viewBox="0 0 142 32.1" style="enable-background:new 0 0 142 32.1;" xml:space="preserve">
<style type="text/css">
	.st0{fill:#FFFFFF;}
	.st1{fill:#55BA58;}
	.st2{fill:#319C47;}
	.st3{fill:#2DACD8;}
</style>
<g>
	<path class="st0" d="M63.1,29.4c0-0.8-0.5-1.4-1.3-1.4h-0.6v2.7h0.6C62.6,30.7,63.1,30.1,63.1,29.4 M63.5,29.4c0,1-0.7,1.8-1.8,1.8
		h-1v-3.5h1C62.9,27.6,63.5,28.3,63.5,29.4"/>
	<polygon class="st0" points="64.6,29.1 66.1,29.1 66.1,29.5 64.6,29.5 64.6,30.7 66.2,30.7 66.2,31.1 64.1,31.1 64.1,27.6 
		66.2,27.6 66.2,28 64.6,28 	"/>
	<path class="st0" d="M67.8,29.5c-0.5-0.2-1-0.5-1-1.1c0-0.4,0.3-0.9,1-0.9c0.7,0,1,0.5,1,0.5l-0.3,0.3c0,0-0.2-0.4-0.7-0.4
		c-0.4,0-0.6,0.3-0.6,0.5c0,0.4,0.3,0.5,0.8,0.7c0.5,0.2,0.9,0.5,0.9,1c0,0.6-0.5,1-1.1,1c-0.8,0-1.1-0.7-1.1-0.7l0.4-0.2
		c0,0,0.2,0.5,0.8,0.5c0.3,0,0.7-0.2,0.7-0.6C68.5,29.9,68.2,29.7,67.8,29.5"/>
	<path class="st0" d="M70.2,29.8h1.2l-0.6-1.6L70.2,29.8z M70.6,27.6H71l1.4,3.5H72l-0.4-1h-1.5l-0.4,1h-0.5L70.6,27.6z"/>
	<path class="st0" d="M74.6,28.6c0-0.4-0.3-0.6-0.7-0.6h-0.5v1.3h0.5C74.3,29.3,74.6,29,74.6,28.6 M72.9,27.6h0.9
		c0.7,0,1.2,0.4,1.2,1c0,0.8-0.8,1-0.9,1l1,1.5h-0.5l-1-1.4h-0.3v1.4h-0.4V27.6z"/>
	<path class="st0" d="M77.4,28.6c0-0.4-0.3-0.6-0.7-0.6h-0.5v1.3h0.5C77.1,29.3,77.4,29,77.4,28.6 M75.7,27.6h0.9
		c0.7,0,1.2,0.4,1.2,1c0,0.8-0.8,1-0.9,1l1,1.5h-0.5l-1-1.4h-0.3v1.4h-0.4V27.6z"/>
	<path class="st0" d="M81.3,29.4c0-0.8-0.5-1.4-1.3-1.4c-0.8,0-1.3,0.7-1.3,1.4c0,0.8,0.5,1.4,1.3,1.4
		C80.8,30.8,81.3,30.1,81.3,29.4 M81.8,29.4c0,1-0.7,1.8-1.8,1.8c-1,0-1.8-0.8-1.8-1.8c0-1,0.7-1.8,1.8-1.8
		C81,27.5,81.8,28.3,81.8,29.4"/>
	<polygon class="st0" points="82.4,27.6 82.8,27.6 82.8,30.7 84.4,30.7 84.4,31.1 82.4,31.1 	"/>
	<polygon class="st0" points="84.8,27.6 85.3,27.6 85.3,30.7 86.8,30.7 86.8,31.1 84.8,31.1 	"/>
	<path class="st0" d="M90.1,29.4c0-0.8-0.5-1.4-1.3-1.4c-0.8,0-1.3,0.7-1.3,1.4c0,0.8,0.5,1.4,1.3,1.4
		C89.6,30.8,90.1,30.1,90.1,29.4 M90.6,29.4c0,1-0.7,1.8-1.8,1.8c-1,0-1.8-0.8-1.8-1.8c0-1,0.7-1.8,1.8-1.8
		C89.9,27.5,90.6,28.3,90.6,29.4"/>
	<path class="st1" d="M93.5,29.5c-0.5-0.2-1-0.5-1-1.1c0-0.4,0.3-0.9,1-0.9c0.7,0,1,0.5,1,0.5l-0.3,0.3c0,0-0.2-0.4-0.7-0.4
		c-0.4,0-0.6,0.3-0.6,0.5c0,0.4,0.3,0.5,0.8,0.7c0.5,0.2,0.9,0.5,0.9,1c0,0.6-0.5,1-1.1,1c-0.8,0-1.1-0.7-1.1-0.7l0.4-0.2
		c0,0,0.2,0.5,0.8,0.5c0.3,0,0.7-0.2,0.7-0.6C94.2,29.9,93.9,29.7,93.5,29.5"/>
	<path class="st1" d="M97.5,27.6h0.4v2.2c0,0.8-0.5,1.4-1.3,1.4c-0.8,0-1.3-0.6-1.3-1.4v-2.2h0.4v2.2c0,0.6,0.3,1,0.9,1
		c0.6,0,0.9-0.4,0.9-1V27.6z"/>
	<path class="st1" d="M99.7,29.5c-0.5-0.2-1-0.5-1-1.1c0-0.4,0.3-0.9,1-0.9c0.7,0,1,0.5,1,0.5l-0.3,0.3c0,0-0.2-0.4-0.7-0.4
		c-0.4,0-0.6,0.3-0.6,0.5c0,0.4,0.3,0.5,0.8,0.7c0.5,0.2,0.9,0.5,0.9,1c0,0.6-0.5,1-1.1,1c-0.8,0-1.1-0.7-1.1-0.7l0.4-0.2
		c0,0,0.2,0.5,0.8,0.5c0.3,0,0.7-0.2,0.7-0.6C100.4,29.9,100.1,29.7,99.7,29.5"/>
	<polygon class="st1" points="102.2,28 101.2,28 101.2,27.6 103.6,27.6 103.6,28 102.6,28 102.6,31.1 102.2,31.1 	"/>
	<polygon class="st1" points="104.5,29.1 106,29.1 106,29.5 104.5,29.5 104.5,30.7 106.2,30.7 106.2,31.1 104.1,31.1 104.1,27.6 
		106.1,27.6 106.1,28 104.5,28 	"/>
	<polygon class="st1" points="107.3,27.6 109.2,30.4 109.2,27.6 109.6,27.6 109.6,31.1 109.2,31.1 107.3,28.3 107.3,31.1 
		106.9,31.1 106.9,27.6 	"/>
	<polygon class="st1" points="111.1,28 110.1,28 110.1,27.6 112.6,27.6 112.6,28 111.5,28 111.5,31.1 111.1,31.1 	"/>
	<path class="st1" d="M113.5,29.8h1.2l-0.6-1.6L113.5,29.8z M113.9,27.6h0.4l1.4,3.5h-0.4l-0.4-1h-1.5l-0.4,1h-0.5L113.9,27.6z"/>
	<path class="st1" d="M118,30.1c0-0.3-0.2-0.6-0.7-0.6h-0.7v1.2h0.7C117.7,30.7,118,30.5,118,30.1 M117.1,29.1
		c0.4,0,0.6-0.2,0.6-0.6s-0.2-0.6-0.6-0.6h-0.6v1.1H117.1z M116.1,27.6h0.9c0.7,0,1.1,0.4,1.1,1c0,0.5-0.3,0.7-0.4,0.7
		c0.1,0,0.6,0.2,0.6,0.9c0,0.6-0.5,1-1.2,1h-1.1V27.6z"/>
	<polygon class="st1" points="119,27.6 119.4,27.6 119.4,30.7 121,30.7 121,31.1 119,31.1 	"/>
	<polygon class="st1" points="121.9,29.1 123.4,29.1 123.4,29.5 121.9,29.5 121.9,30.7 123.5,30.7 123.5,31.1 121.4,31.1 
		121.4,27.6 123.5,27.6 123.5,28 121.9,28 	"/>
	<path class="st1" d="M46.8,1.3l-0.3,0.2c-0.6,0.4-1.2,0.8-1.6,1.4l-0.2,0.3l-0.1,0l0-0.1c0-0.7,0.1-1.3,0.6-1.8
		c0.5-0.5,1.1-0.8,1.8-0.9c0.2,0,0.5-0.1,0.7-0.1l0.1,0.1c0,0.6,0,1.2-0.2,1.8c-0.3,0.9-1.1,1.5-2,1.5c-0.3,0-0.5,0-0.8,0
		c-0.2,0-0.2,0-0.1-0.2c0.3-0.5,0.6-0.9,1-1.3C46,2,46.3,1.7,46.8,1.3L46.8,1.3z"/>
	<path class="st2" d="M39.7,8c0.7,0.7,1.5,1.2,2.5,1.6l0.1,0l0-0.1c-0.2-0.9-0.3-1.7-0.1-2.6l0-0.2c-0.3-1-0.6-2-1-3
		c-0.1-0.3-0.3-0.7-0.5-1l0,0l0.2,0.2c0.6,0.9,1.2,1.9,1.6,3l0.2,0c0.3-0.4,0.7-0.8,1.2-1.1C44,4.7,44,4.7,44,4.5
		c-0.2-0.5-0.4-0.9-0.7-1.3C43,2.7,42.6,2.3,42.1,2c-0.6-0.5-1.3-1-2-1.3l-0.2,0.1c-0.3,0.5-0.6,1-0.8,1.5c-0.4,1-0.7,2.1-0.6,3.3
		C38.6,6.5,39,7.3,39.7,8"/>
	<path class="st1" d="M42.4,7.6c-0.1,0.7,0.1,1.4,0.3,2l0.2,0.1c0.3-0.3,0.7-0.6,1-0.9C44.6,8,45.2,7,45.8,6.1
		c0.1-0.1,0.2-0.3,0.2-0.4l0,0.1c-0.1,0.2-0.1,0.4-0.2,0.6c-0.5,1.2-1.1,2.4-2.1,3.4l0,0.1l0.1,0c0.2,0,0.4-0.1,0.7-0.1
		c1.2-0.3,2-1,2.4-2.1c0.4-1,0.4-2.1,0.2-3.1l-0.2-0.1c-0.3,0-0.6,0.1-1,0.1c-1,0.2-1.9,0.6-2.6,1.4C42.7,6.3,42.5,6.9,42.4,7.6"/>
	<path class="st3" d="M32.7,31l0.4,0.2c0.3,0.1,0.7-0.2,1-0.6l1.5-2.7c-0.9-0.3-1.9-0.7-2.8-1.1c-1.1-0.5-2.2-0.9-3.3-1.4l2.9,5.2
		C32.4,30.8,32.6,30.9,32.7,31"/>
	<path class="st1" d="M39.1,21.5l6.2-11.3c-3.6,1.6-7.4-1.5-7.4-4.1l-0.3,0.4l-3.6,6.4c-0.5,0.9-1.3,0.9-1.7,0l-3.9-7
		C28,5,26.8,4.3,25.8,4.3h-6.2c-1,0-1.5,0.6-1,1.4c0.4,0.8,1.2,2.1,1.7,3l5,9c1.7,0.4,3.5,0.8,5.2,1.3
		C33.3,19.9,36.2,20.8,39.1,21.5"/>
	<path class="st2" d="M32.7,26.8c0.9,0.4,1.9,0.8,2.8,1.1l3.5-6.4c-2.9-0.7-5.8-1.5-8.6-2.4c-1.7-0.5-3.5-1-5.2-1.3l4.2,7.6
		C30.5,25.8,31.6,26.3,32.7,26.8"/>
	<path class="st1" d="M33.1,31.2L32.7,31L33.1,31.2z"/>
	<rect x="52.9" y="5.6" class="st0" width="0.5" height="26.1"/>
	<path class="st1" d="M91.3,23.2c0.3,0,0.4-0.1,0.5-0.3l0.1-0.2v-1.5l-3,2H91.3z"/>
	<path class="st3" d="M95.2,6c-0.2,0-0.3,0-0.4,0.1c-0.1,0.1-0.1,0.2-0.1,0.4v2.1L97.1,6H95.2z"/>
	<path class="st2" d="M114.6,22.7c0,0.2,0.1,0.3,0.2,0.4l0.4,0.2h1.6l-2.1-2.4V22.7z"/>
	<path class="st0" d="M91.3,19.2h-7.8v-3h5.8c0.2,0,0.3-0.1,0.4-0.2l0.1-0.3v-2.5c0-0.2,0-0.3-0.1-0.3l-0.4-0.1h-5.8V10h7.5
		c0.2,0,0.3-0.1,0.4-0.2l0.1-0.4V6.6c0-0.2,0-0.3-0.1-0.4S91.2,6,91.1,6H79.6c-0.2,0-0.3,0-0.4,0.1c-0.1,0.1-0.1,0.2-0.1,0.4v16.1
		c0,0.2,0,0.3,0.1,0.4c0.1,0.1,0.2,0.1,0.4,0.1h9.3l3-2v-1.4C91.9,19.4,91.7,19.2,91.3,19.2"/>
	<path class="st0" d="M103.7,12.4c-0.1,0.2-0.2,0.4-0.3,0.6c-0.1,0.2-0.3,0.3-0.5,0.5c-0.2,0.1-0.5,0.2-0.7,0.2l-0.4,0l-0.4,0h-2.1
		V9.6h1.6c0.2,0,0.4,0,0.6,0c0.2,0,0.4,0,0.6,0c0.3,0,0.5,0.1,0.7,0.3c0.2,0.1,0.4,0.3,0.6,0.5c0.2,0.2,0.3,0.4,0.4,0.6
		c0.1,0.2,0.1,0.5,0.1,0.7C103.8,12,103.7,12.2,103.7,12.4 M108.5,22.1l-3-5.6c0.4-0.2,0.8-0.5,1.2-0.9c0.3-0.3,0.7-0.7,0.9-1.1
		c0.3-0.4,0.5-0.9,0.6-1.3c0.1-0.5,0.2-1,0.2-1.5c0-0.8-0.1-1.5-0.4-2.2c-0.3-0.7-0.7-1.3-1.2-1.8c-0.5-0.5-1.1-0.9-1.8-1.2
		c-0.7-0.3-1.4-0.4-2.2-0.4h-5.6l-2.4,2.6v14c0,0.2,0,0.3,0.1,0.4c0.1,0.1,0.2,0.1,0.4,0.1h3.4c0.4,0,0.5-0.2,0.5-0.5v-5.2h1.9
		l2.8,5.3l0.2,0.3l0.4,0.1h4l0.3-0.1l0.1-0.3l-0.1-0.4L108.5,22.1z"/>
	<path class="st0" d="M123.4,6.2L123,6h-12.4c-0.2,0-0.3,0-0.4,0.1c-0.1,0.1-0.2,0.2-0.2,0.4v2.9c0,0.2,0.1,0.3,0.2,0.4
		c0.1,0.1,0.2,0.1,0.4,0.1h4v10.8l2.1,2.4h1.8c0.2,0,0.3-0.1,0.4-0.2l0.1-0.4V10h4c0.2,0,0.3-0.1,0.4-0.2l0.1-0.4V6.5
		C123.6,6.4,123.5,6.2,123.4,6.2"/>
	<path class="st0" d="M74.7,6h-1.8c-0.3,0-0.5,0.1-0.6,0.4c-0.3,0.9-0.6,1.8-0.9,2.6c-0.3,0.9-0.6,1.8-0.9,2.6
		c-0.3,0.9-0.6,1.8-0.9,2.6c-0.3,0.9-0.6,1.8-0.9,2.6L65.2,6.5C65.1,6.2,64.9,6,64.6,6h-3.7c-0.3,0-0.4,0.1-0.4,0.3l0,0.1l0,0.1
		l5.9,15.5c0.1,0.2,0.1,0.3,0.2,0.5l0.2,0.4c0.1,0.2,0.2,0.2,0.5,0.2h2.9l0.3-0.1l0.2-0.3l0.2-0.4l0.1-0.4l5.3-13.7L74.7,6z"/>
	<path class="st3" d="M76.9,6.1C76.8,6.1,76.7,6,76.5,6h-1.1h-0.8l1.6,2.3l0.2-0.5L77,6.6v0l0-0.1L76.9,6.1z"/>
</g>
</svg>
